<svg width="12" height="12" viewBox="0 0 12 12" fill="none" xmlns="http://www.w3.org/2000/svg">
<path d="M6.79547 6L9.02203 3.77344C9.1277 3.66795 9.18714 3.52481 9.18727 3.3755C9.18741 3.22619 9.12822 3.08294 9.02273 2.97726C8.91725 2.87159 8.7741 2.81215 8.62479 2.81202C8.47548 2.81189 8.33223 2.87108 8.22656 2.97656L6 5.20312L3.77344 2.97656C3.66776 2.87089 3.52444 2.81152 3.375 2.81152C3.22556 2.81152 3.08223 2.87089 2.97656 2.97656C2.87089 3.08223 2.81152 3.22556 2.81152 3.375C2.81152 3.52444 2.87089 3.66776 2.97656 3.77344L5.20312 6L2.97656 8.22656C2.87089 8.33223 2.81152 8.47556 2.81152 8.625C2.81152 8.77444 2.87089 8.91776 2.97656 9.02344C3.08223 9.12911 3.22556 9.18847 3.375 9.18847C3.52444 9.18847 3.66776 9.12911 3.77344 9.02344L6 6.79687L8.22656 9.02344C8.33223 9.12911 8.47556 9.18847 8.625 9.18847C8.77444 9.18847 8.91776 9.12911 9.02344 9.02344C9.12911 8.91776 9.18847 8.77444 9.18847 8.625C9.18847 8.47556 9.12911 8.33223 9.02344 8.22656L6.79547 6Z" fill="black"/>
</svg>
