<svg width="61" height="61" viewBox="0 0 61 61" fill="none" xmlns="http://www.w3.org/2000/svg">
<mask id="mask0_8_105" style="mask-type:alpha" maskUnits="userSpaceOnUse" x="0" y="0" width="61" height="61">
<rect width="61" height="61" fill="#D9D9D9"/>
</mask>
<g mask="url(#mask0_8_105)">
<path d="M91.5 -29.0122H-26.7805V89.2683H91.5V-29.0122Z" fill="white"/>
<path d="M91.5 -29.0122H-26.7805V89.2683H91.5V-29.0122Z" fill="white"/>
<path d="M91.5 -29.0122H-26.7805V89.2683H91.5V-29.0122Z" fill="white"/>
<path d="M6.76277 14.1215L6.67406 14.0377L7.40345 13.2196L11.8685 14.5404L10.0253 10.2823L10.7547 9.45926C10.7646 9.46665 10.7818 9.47774 10.804 9.49376C10.8262 9.50731 10.8434 9.52086 10.8533 9.53318L10.597 9.89788C10.565 9.9447 10.5699 9.99152 10.6118 10.0408L14.6235 13.6237L15.0572 13.1851C15.0597 13.1888 15.0892 13.2184 15.1459 13.2738L14.037 14.5256L13.9631 14.4418L14.2046 14.0771C14.2403 14.0352 14.2391 13.9884 14.1997 13.9391L10.2767 10.44L12.0706 14.5847L12.2086 14.9297L12.0805 15.0727L7.36895 13.6927L11.3658 17.2559L12.0361 16.5758C12.0386 16.5795 12.0669 16.6091 12.1199 16.6645L11.0159 17.9163L10.9371 17.8325L11.1786 17.4728C11.2106 17.4309 11.2057 17.3816 11.1638 17.3249L7.24082 13.8209C7.18168 13.7888 7.13239 13.7913 7.09297 13.8307L6.76277 14.1215Z" fill="black"/>
<path d="M16.8763 12.216C16.4057 12.5549 15.9276 12.6929 15.4422 12.63C14.9592 12.5684 14.5193 12.2592 14.1214 11.7035C13.721 11.1491 13.5595 10.602 13.6384 10.0623C13.7173 9.52393 13.992 9.0853 14.4614 8.74648C14.9284 8.40889 15.404 8.27089 15.8907 8.3325C16.3798 8.39164 16.8234 8.69966 17.2213 9.2541C17.6217 9.80977 17.7807 10.3568 17.6994 10.8952C17.6205 11.4349 17.3458 11.8748 16.8763 12.216ZM14.5403 8.87954C14.2027 9.1235 14.0265 9.47095 14.013 9.92436C13.9969 10.3778 14.1694 10.8558 14.5304 11.3585C14.8927 11.8587 15.2758 12.1655 15.6837 12.2801C16.0903 12.3922 16.4624 12.3269 16.7975 12.083C17.1351 11.8403 17.3113 11.4916 17.3248 11.0382C17.3371 10.5848 17.1634 10.1092 16.8024 9.60894C16.4439 9.10995 16.0607 8.80316 15.6541 8.68734C15.2463 8.57275 14.8754 8.63682 14.5403 8.87954Z" fill="black"/>
<path d="M17.1836 5.0817L18.0757 6.93969C18.2605 6.55528 18.5365 6.27436 18.9086 6.09694C19.2437 5.93677 19.6109 5.88872 20.0125 5.95402C20.2294 5.99098 20.4438 6.1068 20.6581 6.30393C20.875 6.50106 21.0672 6.77582 21.2348 7.12696C21.5526 7.79106 21.6266 8.36891 21.4565 8.86175C21.2656 9.42111 20.8824 9.83756 20.3082 10.1135C20.0914 10.2158 19.8671 10.2996 19.638 10.3649C19.4113 10.4314 19.2511 10.461 19.1599 10.4536L16.6662 5.25419C16.6366 5.21846 16.612 5.20491 16.5922 5.21476L16.1241 5.42175L16.0896 5.31333C16.3791 5.1162 16.5824 4.99052 16.7007 4.93385C16.8165 4.8784 16.9163 4.86978 17.0013 4.90921C17.0875 4.94617 17.1479 5.00284 17.1836 5.0817ZM18.1447 7.08261L19.6675 10.2565C19.8215 10.2368 19.9891 10.1825 20.1702 10.0938C20.6594 9.86097 20.9551 9.50736 21.0573 9.03424C21.1584 8.56112 21.0598 8.01653 20.7616 7.39802C20.4364 6.72161 20.0828 6.32857 19.702 6.22015C19.4026 6.13883 19.1156 6.16347 18.8396 6.29407C18.5661 6.42591 18.3357 6.68834 18.1447 7.08261Z" fill="black"/>
<path d="M22.7543 9.08165L22.7199 8.9683L23.1141 8.78102C23.1498 8.765 23.1646 8.72927 23.1585 8.6726L21.4188 3.26619C21.4027 3.21075 21.3781 3.1898 21.3448 3.20212L20.8569 3.33519L20.8323 3.22184C21.1477 3.06783 21.3682 2.97049 21.4927 2.93106C21.6147 2.89164 21.7145 2.89903 21.7933 2.95078C21.8697 3.00006 21.9202 3.06413 21.9461 3.14298L23.7006 8.59374L24.3019 8.44096C24.3043 8.44466 24.3142 8.48532 24.3314 8.56417L22.7543 9.08165Z" fill="black"/>
<path d="M26.5515 8.11473C25.9822 8.2133 25.4931 8.12951 25.0828 7.86338C24.675 7.59725 24.4126 7.12783 24.2943 6.45387C24.176 5.78115 24.2696 5.21932 24.5752 4.76838C24.8808 4.31866 25.3169 4.04391 25.8861 3.94534C26.4541 3.84431 26.9433 3.92563 27.3548 4.19176C27.7688 4.45789 28.0349 4.92855 28.1532 5.60127C28.2715 6.27152 28.1754 6.83336 27.8673 7.28677C27.5618 7.73771 27.1232 8.0137 26.5515 8.11473ZM25.9009 4.09319C25.4931 4.16589 25.1826 4.40368 24.9695 4.8078C24.7588 5.20946 24.7058 5.71339 24.8118 6.32081C24.9202 6.92946 25.1333 7.37301 25.4524 7.65146C25.7703 7.92745 26.1338 8.02972 26.5416 7.95702C26.9519 7.88556 27.2611 7.649 27.4681 7.24734C27.6776 6.84691 27.7293 6.34422 27.6209 5.73926C27.515 5.13184 27.3055 4.68829 26.9901 4.40861C26.6747 4.12646 26.3112 4.02173 25.9009 4.09319Z" fill="black"/>
<path d="M31.5954 1.95332L31.6151 1.83011L33.6308 2.05188C34.3725 2.13074 34.9442 2.41042 35.3459 2.8897C35.7463 3.37022 35.8942 4.09962 35.7894 5.07789C35.6872 6.04139 35.4543 6.74368 35.0896 7.18723C34.7668 7.5741 34.3072 7.79342 33.7097 7.8427C33.4497 7.85872 33.1441 7.84763 32.793 7.8082L32.6402 7.79342L30.9843 7.62092L30.9991 7.50264L31.4377 7.49279C31.4931 7.49648 31.5289 7.46322 31.5461 7.39422L32.1079 2.17509C32.1079 2.1061 32.0796 2.06544 32.0242 2.05188L31.5954 1.95332ZM33.5717 2.17017L32.6895 2.0716L32.0932 7.60614L32.7683 7.68006C33.0345 7.70963 33.2612 7.71703 33.4485 7.70471C33.6357 7.69485 33.8353 7.64557 34.0497 7.55686C34.2629 7.46568 34.4366 7.32522 34.5721 7.13795C34.9036 6.70179 35.1204 6.00689 35.2227 5.05325C35.3311 4.06142 35.214 3.33695 34.8728 2.87985C34.5499 2.46587 34.1163 2.22931 33.5717 2.17017Z" fill="black"/>
<path d="M36.7107 6.50351C36.3756 7.65058 36.6565 8.3541 37.5534 8.61777C37.7863 8.68677 38.0426 8.73359 38.3223 8.76069C38.6007 8.79026 38.7831 8.79519 38.8693 8.77548L38.9087 8.87405C38.7609 8.91594 38.5391 8.92333 38.2434 8.89376C37.9477 8.86665 37.6828 8.81983 37.45 8.75084C37.2196 8.68184 37.0212 8.59559 36.8536 8.49456C36.6861 8.3923 36.5234 8.25307 36.3657 8.07565C36.2105 7.89577 36.1156 7.65921 36.0799 7.36597C36.0466 7.07396 36.086 6.73884 36.1981 6.36059C36.4051 5.65829 36.7427 5.17532 37.2134 4.91165C37.7025 4.6332 38.1966 4.56666 38.6968 4.71452C39.1995 4.86237 39.5408 5.11371 39.7219 5.46855C39.9018 5.82093 39.9203 6.246 39.7761 6.745C39.7429 6.85342 39.6997 6.96677 39.648 7.08505L36.7994 6.24723C36.776 6.30021 36.7464 6.38523 36.7107 6.50351ZM39.3227 6.54786C39.4373 6.15359 39.4435 5.80368 39.3424 5.49812C39.2402 5.19257 39.0381 4.99543 38.7363 4.90672C38.342 4.79214 37.96 4.86729 37.5929 5.13343C37.2935 5.33795 37.0508 5.65953 36.8635 6.09938L39.2389 6.79428C39.2611 6.73884 39.2895 6.65629 39.3227 6.54786Z" fill="black"/>
<path d="M40.3579 9.6894C40.3875 9.70541 40.4183 9.7165 40.4515 9.7239C40.7177 9.83848 40.974 9.85696 41.2204 9.77811C41.4693 9.70172 41.6652 9.50951 41.8068 9.20149C41.9473 8.90332 41.813 8.57559 41.4027 8.22075C41.2352 8.07659 41.0676 7.92751 40.9 7.77227C40.7325 7.61456 40.6105 7.43467 40.5353 7.23015C40.4589 7.02316 40.4737 6.80631 40.5797 6.57961C40.7275 6.25803 40.9703 6.0572 41.3091 5.97835C41.6467 5.89949 42.0052 5.94631 42.3835 6.11634C42.6619 6.24817 42.9207 6.43052 43.1572 6.66339L43.2706 6.78167L42.8714 7.64906L42.7087 7.62934L42.9699 6.97387C42.7851 6.60918 42.5966 6.38247 42.4032 6.29376C42.1235 6.16562 41.866 6.14591 41.6294 6.23462C41.3929 6.32333 41.2117 6.50445 41.0873 6.77674C41.0146 6.93445 41.0257 7.09462 41.1218 7.25479C41.2167 7.4125 41.3497 7.56528 41.521 7.71313C41.691 7.85851 41.8586 8.00883 42.0237 8.16654C42.1913 8.32424 42.3071 8.51152 42.3736 8.72837C42.4389 8.94522 42.4143 9.17685 42.2997 9.42327C42.1444 9.7547 41.898 9.96046 41.5604 10.0393C41.2216 10.1182 40.8236 10.0516 40.3678 9.84218C39.9107 9.63149 39.5817 9.34688 39.3821 8.98957L39.7813 8.12218L39.939 8.13697L39.6827 8.79244C39.6926 8.95754 39.7665 9.13003 39.9045 9.30991C40.045 9.4898 40.1965 9.6167 40.3579 9.6894Z" fill="black"/>
<path d="M45.1621 8.04894L43.2646 11.1637L43.7723 11.5234C43.7686 11.5259 43.7452 11.5604 43.7033 11.6269L42.279 10.7694C42.3049 10.7263 42.3258 10.693 42.343 10.6708L42.7472 10.8482C42.773 10.8643 42.8038 10.8532 42.8408 10.8138L44.7382 7.69903C44.7481 7.6633 44.7432 7.63866 44.7234 7.62511L44.3095 7.35898L44.3785 7.26041C44.6606 7.37253 44.8676 7.46986 44.9994 7.55118C45.13 7.63003 45.2015 7.71628 45.2113 7.80746C45.2212 7.89986 45.204 7.97995 45.1621 8.04894ZM45.6697 6.65915C45.5773 6.60001 45.5231 6.52608 45.507 6.43737C45.4935 6.3462 45.5169 6.25256 45.576 6.15646C45.6352 6.06159 45.7091 6.00121 45.7978 5.97411C45.889 5.94823 45.9814 5.96425 46.0738 6.02339C46.1687 6.08007 46.2278 6.15522 46.2512 6.2501C46.2734 6.3462 46.2537 6.44477 46.1921 6.5458C46.1329 6.64436 46.0541 6.70227 45.9555 6.71829C45.8594 6.73554 45.7646 6.71582 45.6697 6.65915Z" fill="black"/>
<path d="M43.5067 12.4476C43.8382 12.0434 44.3655 11.8956 45.0887 12.004C44.9766 11.7182 44.9926 11.4865 45.138 11.3091C45.2822 11.1317 45.4793 11.0652 45.7294 11.107C45.5187 10.6832 45.6124 10.2286 46.0103 9.74189C46.2789 9.41415 46.6141 9.25645 47.0157 9.26877C47.4198 9.28232 47.8153 9.44619 48.2035 9.7616C48.3833 9.90945 48.5361 10.0721 48.6618 10.2495L49.7904 11.0627L49.5785 11.2992L48.8441 10.629C48.9784 11.0331 48.8959 11.4175 48.5977 11.7822C48.302 12.1469 47.957 12.3293 47.5628 12.3293C47.1685 12.3317 46.7841 12.1814 46.4095 11.8759C46.1594 11.6713 45.9734 11.4853 45.8526 11.314C45.7146 11.3337 45.6013 11.3966 45.5126 11.5013C45.3549 11.6947 45.3179 11.898 45.4042 12.1124C45.4892 12.3453 45.7122 12.6718 46.0744 13.0932C46.1631 13.1942 46.2247 13.2681 46.2617 13.3149C46.3011 13.3605 46.3553 13.4283 46.4243 13.517C46.4933 13.6057 46.5426 13.6747 46.5722 13.724C46.6042 13.7733 46.6424 13.8374 46.6855 13.9162C46.7311 13.9975 46.7607 14.0653 46.7742 14.1183C46.7866 14.1737 46.7989 14.239 46.8087 14.3154C46.8211 14.3906 46.8186 14.4596 46.7989 14.5224C46.7558 14.6727 46.6732 14.823 46.5525 14.9709C46.4305 15.1187 46.2715 15.2222 46.0744 15.2814C45.8773 15.3405 45.6678 15.338 45.4485 15.2764C45.0345 15.1606 44.6267 14.9388 44.2263 14.6111C43.7014 14.1799 43.3971 13.7757 43.3145 13.3987C43.2332 13.0205 43.2973 12.7038 43.5067 12.4476ZM45.1479 12.142C44.6255 12.2172 44.2435 12.4007 44.0045 12.694C43.7655 12.986 43.6644 13.2817 43.7039 13.5811C43.7433 13.8792 43.9355 14.17 44.2805 14.4534C44.6279 14.7392 44.968 14.9068 45.3007 14.9561C45.6321 15.0078 45.9179 14.8883 46.1582 14.5963C46.3479 14.3659 46.4145 14.1392 46.3553 13.9162C46.2986 13.692 46.1631 13.4455 45.9463 13.177C45.4953 12.6508 45.2292 12.3059 45.1479 12.142ZM48.1147 9.8306C47.8486 9.61375 47.5652 9.52258 47.2671 9.55461C46.9677 9.58788 46.6818 9.77023 46.4095 10.1017C46.1397 10.4306 46.0005 10.7276 45.9906 10.9937C45.9832 11.2574 46.12 11.5038 46.3997 11.7329C46.6818 11.9621 46.9788 12.0484 47.2917 11.9892C47.6071 11.9325 47.8942 11.7453 48.1542 11.4274C48.6667 10.8039 48.6532 10.2717 48.1147 9.8306Z" fill="black"/>
<path d="M47.3321 14.4876L47.4258 14.4186L47.7511 14.7094C47.7868 14.7488 47.8324 14.7439 47.889 14.6946L50.644 12.3832C50.6736 12.3475 50.6797 12.3191 50.6637 12.2994L50.3483 11.9002L50.4419 11.8362C50.7044 12.0702 50.8756 12.2329 50.9545 12.3241C51.0986 12.4953 51.1048 12.6543 50.9742 12.8021L50.9791 12.807L50.8461 12.9204C51.3746 13.0682 51.78 13.2974 52.0634 13.6054C52.3221 13.9147 52.4576 14.1993 52.4675 14.463C52.47 14.5837 52.4379 14.7217 52.3689 14.8769C52.3024 15.031 52.1878 15.1751 52.0239 15.3106L49.8111 17.1686L50.1758 17.6762C50.1721 17.6787 50.1413 17.7034 50.0822 17.7502L49.0029 16.4787C49.0423 16.4491 49.0743 16.4257 49.1014 16.4097L49.4218 16.7054C49.4538 16.7374 49.4982 16.73 49.5548 16.6807L51.5212 15.0297C51.6913 14.888 51.8169 14.7451 51.8958 14.601C51.9771 14.4556 52.0239 14.3324 52.0338 14.2313C52.0437 14.1303 52.0289 14.0268 51.9894 13.9208C51.9463 13.8001 51.881 13.688 51.7923 13.5857C51.5755 13.3368 51.2354 13.1348 50.7721 12.9795L48.1453 15.1825L48.51 15.6901C48.5063 15.6926 48.4755 15.7172 48.4164 15.764L47.3321 14.4876Z" fill="black"/>
<path d="M17.9997 55.9443L19.1283 54.3573L17.5512 55.0818L17.4428 55.0029L17.6103 53.278L16.4817 54.865L16.2895 54.727L17.6646 52.795L17.8617 52.933L17.6744 54.791L19.3698 54.0074L19.562 54.1454L18.187 56.0773L17.9997 55.9443Z" fill="black"/>
<path d="M20.7419 54.7988L20.9144 54.8924L20.6582 57.4502L20.4413 57.3319L20.5202 56.5335L19.5887 56.0309L18.9677 56.5385L18.746 56.4202L20.7419 54.7988ZM20.5645 56.3413L20.6976 55.0895L19.7168 55.8879L20.5645 56.3413Z" fill="black"/>
<path d="M21.2453 57.7076L22.1275 55.5046L22.8717 55.8052C23.0491 55.8742 23.1896 55.9654 23.2955 56.0763C23.4039 56.1884 23.4803 56.3116 23.5272 56.4459C23.5764 56.5778 23.5974 56.7207 23.5912 56.8747C23.5838 57.0299 23.5493 57.1802 23.4877 57.3281C23.4212 57.4957 23.3362 57.6361 23.2314 57.7519C23.1255 57.8665 23.0072 57.954 22.8766 58.0131C22.7485 58.0723 22.608 58.1019 22.4577 58.1019C22.3062 58.1019 22.1497 58.0698 21.9895 58.0082L21.2453 57.7076ZM23.2659 57.2394C23.3177 57.1088 23.3497 56.9807 23.3596 56.855C23.3694 56.7305 23.3522 56.6123 23.3103 56.5001C23.2709 56.3892 23.208 56.2907 23.123 56.2044C23.0368 56.1194 22.9271 56.0504 22.7928 55.9974L22.2655 55.7855L21.541 57.6041L22.0684 57.816C22.2064 57.8678 22.3357 57.8924 22.4577 57.8899C22.5784 57.8862 22.6918 57.8567 22.7978 57.8012C22.9025 57.7482 22.9924 57.6743 23.0688 57.5794C23.1477 57.4846 23.213 57.3712 23.2659 57.2394Z" fill="black"/>
<path d="M25.3395 58.8803L25.2853 59.0774L23.7525 58.6486L24.3883 56.3668L25.8914 56.7857L25.8372 56.9828L24.5608 56.628L24.3292 57.456L25.443 57.7664L25.3937 57.9537L24.2799 57.6432L24.0334 58.5156L25.3395 58.8803Z" fill="black"/>
<path d="M27.0157 59.4061L27.3804 57.0652L27.6169 57.1046L27.2522 59.4455L27.0157 59.4061Z" fill="black"/>
<path d="M28.4697 57.6576L28.3366 59.5895L28.1001 59.5747L28.2627 57.2091L28.445 57.2239L29.8743 59.2987L30.0073 57.3372L30.239 57.352L30.0763 59.7127L29.8743 59.6979L28.4697 57.6576Z" fill="black"/>
<path d="M32.0402 59.6709L31.8332 57.3102L33.3856 57.1722L33.4004 57.3792L32.0846 57.4975L32.1634 58.3648L33.2723 58.2663L33.2871 58.4585L32.1782 58.557L32.2768 59.6511L32.0402 59.6709Z" fill="black"/>
<path d="M34.2781 59.4345L33.8297 57.1083L34.8104 56.9161C34.9114 56.9001 35.0088 56.905 35.1012 56.9309C35.1961 56.958 35.2798 56.9987 35.3525 57.0541C35.4277 57.1071 35.4918 57.1748 35.5447 57.2562C35.5965 57.3387 35.631 57.4237 35.6482 57.5124C35.6642 57.5987 35.6655 57.6837 35.6532 57.7687C35.6433 57.855 35.6211 57.9313 35.5891 58.0003C35.5558 58.0693 35.5115 58.1322 35.456 58.1876C35.3993 58.2406 35.3353 58.2837 35.2638 58.3158L36.0031 59.1043L35.7419 59.1536L35.0371 58.3995L34.3471 58.5326L34.5098 59.3901L34.2781 59.4345ZM34.3077 58.3305L35.0667 58.1827C35.1357 58.1704 35.1924 58.1433 35.2392 58.1038C35.2885 58.0619 35.3279 58.0127 35.3575 57.956C35.3895 57.8968 35.4117 57.8352 35.4215 57.7687C35.4314 57.7034 35.4289 57.6344 35.4166 57.5617C35.403 57.4927 35.3772 57.4287 35.3377 57.3695C35.3008 57.3079 35.2564 57.2562 35.2047 57.2167C35.1517 57.1773 35.0926 57.1502 35.0273 57.133C34.9644 57.1132 34.9016 57.1108 34.84 57.1231L34.1007 57.266L34.3077 58.3305Z" fill="black"/>
<path d="M36.7049 56.4409L36.8921 56.3817L38.5283 58.358L38.2918 58.4319L37.7792 57.8159L36.7689 58.1264L36.6901 58.9248L36.4535 58.9987L36.7049 56.4409ZM37.6807 57.6483L36.8773 56.6774L36.7591 57.9342L37.6807 57.6483Z" fill="black"/>
<path d="M38.57 56.2578L39.3487 58.032L39.1319 58.1306L38.1758 55.9621L38.3433 55.8882L40.5709 57.0611L39.7775 55.2623L39.9894 55.1686L40.9455 57.3322L40.7582 57.411L38.57 56.2578Z" fill="black"/>
<path d="M40.9943 55.9581C40.9229 55.8373 40.8736 55.7018 40.8465 55.554C40.8169 55.4061 40.8157 55.2607 40.8415 55.1153C40.8686 54.9712 40.9241 54.8332 41.0091 54.7014C41.0953 54.5708 41.2149 54.4586 41.3689 54.3662C41.5488 54.2615 41.7286 54.2122 41.9061 54.2184C42.0835 54.2258 42.2424 54.2751 42.3841 54.3662L42.2855 54.5584C42.2092 54.5128 42.134 54.4796 42.0588 54.4599C41.9861 54.4402 41.9135 54.4328 41.842 54.4352C41.7693 54.4389 41.7015 54.4525 41.6399 54.4747C41.5771 54.4944 41.518 54.5215 41.4625 54.5535C41.3418 54.6262 41.2481 54.7149 41.1816 54.8196C41.1163 54.9256 41.0756 55.0365 41.0584 55.1548C41.0424 55.273 41.0473 55.3938 41.0732 55.5145C41.1003 55.6328 41.1446 55.7437 41.2062 55.8447C41.2728 55.9606 41.3565 56.0591 41.4576 56.1404C41.5586 56.2193 41.6658 56.2784 41.7779 56.3179C41.8925 56.3573 42.0096 56.3745 42.1278 56.3671C42.2486 56.3573 42.3644 56.3203 42.4728 56.2538C42.532 56.2218 42.5874 56.1799 42.6404 56.1306C42.6921 56.0813 42.7365 56.0259 42.7734 55.963C42.8129 55.8977 42.8424 55.8275 42.8622 55.7511C42.8819 55.6722 42.888 55.5922 42.8819 55.5096L43.0987 55.4948C43.111 55.5872 43.1049 55.6809 43.079 55.7757C43.0556 55.8718 43.0199 55.9618 42.9706 56.0468C42.9213 56.1293 42.8622 56.2045 42.7932 56.2735C42.7242 56.34 42.6502 56.3955 42.5714 56.4411C42.4334 56.5236 42.2868 56.5692 42.1328 56.5791C41.9775 56.5889 41.8297 56.5692 41.6892 56.5199C41.5475 56.4682 41.4169 56.3942 41.2949 56.2981C41.1705 56.1996 41.0707 56.0862 40.9943 55.9581Z" fill="black"/>
<path d="M45.0879 54.441L45.2111 54.6086L43.9347 55.5548L42.5202 53.6525L43.777 52.721L43.9002 52.8886L42.8356 53.6821L43.3482 54.3671L44.2747 53.6771L44.393 53.8348L43.4665 54.5248L44.0037 55.2493L45.0879 54.441Z" fill="black"/>
<mask id="mask1_8_105" style="mask-type:luminance" maskUnits="userSpaceOnUse" x="3" y="35" width="55" height="19">
<path d="M3.91575 35.012H57.3785V53.2272H3.91575V35.012Z" fill="white"/>
</mask>
<g mask="url(#mask1_8_105)">
<path d="M30.6386 58.4685C15.9114 58.4685 3.91579 46.4729 3.91579 31.7273C3.91579 16.9829 15.9114 5.00574 30.6386 5.00574C45.3657 5.00574 57.3613 17.0001 57.3613 31.7273C57.3786 46.4729 45.3842 58.4685 30.6386 58.4685ZM30.6386 5.45791C16.1467 5.45791 4.36796 17.2354 4.36796 31.7273C4.36796 46.2191 16.1652 58.0163 30.6386 58.0163C45.1119 58.0163 56.9264 46.2191 56.9264 31.7273C56.9264 17.2354 45.1304 5.45791 30.6386 5.45791Z" fill="black"/>
</g>
<mask id="mask2_8_105" style="mask-type:luminance" maskUnits="userSpaceOnUse" x="3" y="17" width="55" height="12">
<path d="M3.91575 17.0445H57.3785V28.3994H3.91575V17.0445Z" fill="white"/>
</mask>
<g mask="url(#mask2_8_105)">
<path d="M30.6386 57.6172C15.9114 57.6172 3.91579 45.6228 3.91579 30.8772C3.91579 16.1315 15.9114 4.15439 30.6386 4.15439C45.3657 4.15439 57.3613 16.15 57.3613 30.8772C57.3786 45.6228 45.3842 57.6172 30.6386 57.6172ZM30.6386 4.60656C16.1467 4.60656 4.36796 16.3853 4.36796 30.8772C4.36796 45.369 16.1652 57.165 30.6386 57.165C45.1119 57.165 56.9264 45.369 56.9264 30.8772C56.9264 16.3853 45.1304 4.60656 30.6386 4.60656Z" fill="black"/>
</g>
<path d="M57.2701 30.8057C56.7477 30.8057 56.3239 31.2295 56.3239 31.7519C56.3239 32.2743 56.7477 32.6982 57.2701 32.6982C57.7925 32.6982 58.2164 32.2743 58.2164 31.7519C58.2164 31.2295 57.7925 30.8057 57.2701 30.8057Z" fill="black"/>
<mask id="mask3_8_105" style="mask-type:luminance" maskUnits="userSpaceOnUse" x="10" y="12" width="41" height="42">
<path d="M10.5937 12.3392H50.5725V53.0277H10.5937V12.3392Z" fill="white"/>
</mask>
<g mask="url(#mask3_8_105)">
<path d="M48.3065 37.3469C47.8543 38.9252 47.3097 40.2152 46.5631 41.4731C46.1159 41.5323 45.7955 41.5581 45.5331 41.5581C45.1351 41.5581 44.816 41.4978 44.2677 41.3869C45.0772 40.6131 45.8152 39.7655 46.2563 38.7046C47.0793 36.721 47.1902 34.3874 47.1902 32.3643C47.1902 30.4151 46.4658 28.7161 45.7659 27.0725C45.6637 26.8322 45.5614 26.5932 45.4616 26.3529C44.7051 24.5295 43.7897 22.6283 42.2348 21.0759C41.9563 20.7975 41.684 20.5116 41.3957 20.2098C40.1957 18.9518 38.9537 17.6519 37.315 16.9731C35.361 16.1636 33.0927 15.7176 30.9316 15.7176C29.2301 15.7176 27.7245 16.4346 26.2681 17.1295C25.7876 17.3587 25.333 17.5743 24.8746 17.7641C22.5817 18.714 20.9628 19.7342 19.6223 21.071L19.4399 21.2533C18.0107 22.6789 16.5334 24.1524 15.7338 26.0782C14.9268 28.0212 14.5005 30.1958 14.5005 32.3643C14.5005 34.1656 15.2077 35.7464 15.8927 37.2742C16.0554 37.6401 16.2254 38.0171 16.3782 38.3843C17.1556 40.2583 18.2546 41.8662 19.8354 43.4445C20.0362 43.6465 20.2358 43.8498 20.4354 44.0531C21.6811 45.3234 22.9686 46.6368 24.712 47.3588L24.7711 47.3835C26.6254 48.1511 28.7262 49.0221 30.9316 49.0221C33.1814 49.0221 35.4571 48.5921 37.3385 47.8135C37.9508 47.5597 38.4843 47.1962 38.971 46.7736C39.1632 47.2985 39.3098 47.8997 39.3283 48.6858C38.09 49.2932 36.6189 49.8402 35.3708 50.1495C34.9075 50.2641 34.4369 50.4095 33.981 50.5487C32.9658 50.8604 31.9148 51.182 30.9316 51.182C29.0317 51.182 27.0468 50.6239 25.1864 50.0201C23.3986 49.4411 21.6121 48.5219 20.019 47.3638C19.058 46.6664 18.3951 45.5797 17.6928 44.4301C17.3527 43.8732 17.0016 43.2979 16.6061 42.7557C15.326 40.9975 14.5189 39.4895 13.9904 37.8619C13.8265 37.3592 13.638 36.8565 13.4544 36.3711C12.9419 35.0096 12.4577 33.7233 12.4577 32.3643C12.4577 30.5125 13.0503 28.6939 13.622 26.9357L13.6774 26.7657C14.2232 25.0888 15.0857 23.4526 16.3178 21.7622C16.4619 21.5638 16.6061 21.363 16.7515 21.1609C17.7384 19.7908 18.7586 18.3727 20.0633 17.4252C21.479 16.3952 23.3062 15.8038 25.073 15.2321L25.3293 15.1496C27.3327 14.499 29.166 14.1836 30.9316 14.1836C32.8684 14.1836 34.6624 14.7134 36.4822 15.3036C38.5989 15.9899 40.2141 16.7673 41.5633 17.748C42.666 18.5489 43.4373 19.6861 44.2542 20.8899C44.5215 21.2841 44.7987 21.692 45.0908 22.0936L45.1647 22.1946C46.2612 23.7003 47.2987 25.1221 47.8666 26.8692C48.4346 28.6188 48.6995 30.3646 48.6995 32.3643L48.7008 32.8534C48.7045 34.4441 48.7082 35.9472 48.3065 37.3469ZM43.1441 41.1688C42.305 41.0173 41.5374 40.8374 40.9312 40.6809C41.9107 39.7679 42.9174 38.8217 43.4484 37.5428C44.0694 36.0495 44.0657 34.3406 44.0632 32.6883V32.3643C44.0632 30.7688 43.7145 29.1867 42.9679 27.3854C42.2643 25.6938 41.3526 24.3028 40.1784 23.1286C39.9973 22.9487 39.8174 22.7639 39.6351 22.5766C38.6013 21.517 37.5319 20.4204 36.1261 19.8389C34.9852 19.367 33.7001 19.3017 32.4828 19.3017C32.2228 19.3017 31.9641 19.3042 31.7029 19.3079C31.4454 19.3103 31.1879 19.3128 30.9316 19.3128C29.0637 19.3128 27.478 19.9054 26.0143 20.5104C25.588 20.6878 25.1285 20.8443 24.6849 20.9958C23.475 21.4073 22.2244 21.8324 21.3041 22.7503C20.0621 23.9923 19.2723 25.6531 18.6021 27.2647C17.917 28.9157 17.5548 30.68 17.5548 32.3643C17.5548 34.1176 18.1992 35.6688 18.8226 37.1682L18.8953 37.3432C19.0419 37.6968 19.1824 38.0713 19.3179 38.4336C19.7972 39.7162 20.2925 41.0431 21.2671 42.0153C22.477 43.2239 24.0553 44.2675 25.71 44.9526C26.3778 45.2298 27.1244 45.353 28.1298 45.353C28.5956 45.353 29.0748 45.3259 29.5369 45.3012C29.9964 45.2754 30.472 45.2495 30.9316 45.2495C31.4121 45.2495 31.9136 45.2815 32.3978 45.3136C32.8881 45.3444 33.3958 45.3776 33.8874 45.3776C34.8164 45.3776 35.5421 45.2569 36.1704 44.9969C36.8333 44.7222 37.3951 44.3008 37.9077 43.819C37.9989 44.6039 38.2896 45.2322 38.5755 45.8495C38.5792 45.8581 38.5829 45.8668 38.5866 45.8754C38.1011 46.3288 37.5775 46.7157 36.9848 46.9609C35.2131 47.6952 33.0631 48.0993 30.9316 48.0993C28.911 48.0993 26.899 47.2664 25.1248 46.5309L25.0656 46.5062C23.4972 45.8569 22.3304 44.6667 21.0958 43.4075C20.8938 43.2018 20.6917 42.996 20.4884 42.7927C18.9964 41.3031 17.9614 39.7901 17.2308 38.0307C17.0743 37.6524 16.9018 37.2692 16.7355 36.8972C16.0911 35.4581 15.4245 33.9697 15.4245 32.3643C15.4245 30.3153 15.8262 28.2639 16.5876 26.4318C17.317 24.6748 18.7278 23.2678 20.0929 21.9063L20.2753 21.724C21.5258 20.4759 23.0536 19.5173 25.2295 18.6167C25.7088 18.4183 26.1954 18.1854 26.6661 17.9612C28.03 17.3119 29.4395 16.6392 30.9316 16.6392C32.9744 16.6392 35.1158 17.0605 36.9614 17.8244C38.4202 18.4282 39.5919 19.6578 40.7267 20.8467C41.0064 21.1387 41.2947 21.4418 41.5818 21.7277C43.0221 23.1668 43.8882 24.9718 44.609 26.7066C44.7088 26.9493 44.8123 27.1908 44.9158 27.4335C45.5799 28.9921 46.2662 30.6037 46.2662 32.3643C46.2662 34.2962 46.1639 36.5164 45.4025 38.351C44.9429 39.4574 44.0915 40.315 43.1441 41.1688ZM40.0601 40.4419C39.7706 40.3569 39.6018 40.3027 39.5969 40.3014L38.7874 40.0378L38.4584 40.8214C38.1541 41.5471 37.9878 42.1705 37.9188 42.7188C37.3089 43.3706 36.6559 43.9632 35.876 44.286C35.3437 44.5065 34.7116 44.6088 33.8874 44.6088C33.4204 44.6088 32.9485 44.578 32.4483 44.546C31.9505 44.5139 31.4367 44.4807 30.9316 44.4807C30.4511 44.4807 29.9656 44.5078 29.495 44.5336C29.0219 44.5595 28.5746 44.5842 28.1298 44.5842C27.2304 44.5842 26.5749 44.4782 26.0045 44.2429C24.441 43.5948 22.9526 42.6116 21.8117 41.4719C20.9554 40.6181 20.4896 39.3712 20.0399 38.165C19.9019 37.7966 19.759 37.4146 19.6075 37.0487L19.5335 36.8725C18.9397 35.4433 18.3249 33.9648 18.3249 32.3643C18.3249 30.7798 18.6662 29.1178 19.3142 27.5592C19.9525 26.0215 20.7016 24.4407 21.8486 23.2949C22.6421 22.5027 23.7547 22.1232 24.9326 21.7228C25.3884 21.5675 25.8603 21.4073 26.3088 21.2213C27.7023 20.6447 29.2054 20.0816 30.9316 20.0816C31.1903 20.0816 31.4515 20.0792 31.7115 20.0755C31.969 20.073 32.2265 20.0705 32.4828 20.0705C33.7987 20.0705 34.8718 20.1518 35.8316 20.5486C37.0908 21.071 38.1036 22.1096 39.0843 23.1138C39.2679 23.3023 39.4515 23.4896 39.6338 23.6732C40.7353 24.7734 41.5929 26.0831 42.2557 27.6799C42.9642 29.3839 43.2931 30.8735 43.2931 32.3643V32.6896C43.2968 34.2666 43.2993 35.8967 42.7375 37.2483C42.2631 38.3904 41.2996 39.2874 40.3669 40.1548C40.2659 40.2497 40.1636 40.3445 40.0601 40.4419ZM50.5477 32.8497V32.3643C50.5477 30.165 50.2532 28.238 49.6236 26.2987C48.9644 24.2732 47.8445 22.7355 46.658 21.1092L46.584 21.0069C46.3105 20.6311 46.0419 20.2369 45.7832 19.8549C44.9146 18.5735 44.0151 17.2478 42.65 16.256C41.1394 15.157 39.3603 14.297 37.0526 13.5491C35.165 12.9367 33.137 12.3392 30.9316 12.3392C28.9689 12.3392 26.9495 12.6842 24.7588 13.3951L24.5026 13.4776C22.599 14.0937 20.6301 14.7307 18.9754 15.9332C17.4316 17.0556 16.3227 18.5957 15.2508 20.0841C15.1091 20.2837 14.9662 20.4808 14.8233 20.6779C13.4766 22.5261 12.5267 24.3311 11.9205 26.1965L11.865 26.3653C11.249 28.2602 10.6108 30.2192 10.6108 32.3643C10.6108 34.0584 11.1775 35.564 11.7258 37.0204C11.9094 37.5083 12.0831 37.9691 12.2334 38.4311C12.8248 40.2509 13.7132 41.9204 15.1128 43.8412C15.4627 44.323 15.7806 44.8404 16.1157 45.3912C16.8809 46.6442 17.6719 47.9404 18.9311 48.857C20.6806 50.1273 22.6458 51.1364 24.6159 51.7746C26.6217 52.4252 28.7742 53.0277 30.9316 53.0277C32.1933 53.0277 33.3773 52.6642 34.5231 52.3118C34.9753 52.1738 35.4016 52.0432 35.8168 51.941C37.3902 51.5504 39.2088 50.8493 40.6799 50.067L41.1456 49.8193L41.169 49.2932C41.259 47.2467 40.7008 46.0429 40.2523 45.0745C39.8199 44.1431 39.5316 43.5209 39.8827 42.3097C40.5751 42.5032 41.6274 42.7705 42.8262 42.9861C43.2291 43.0588 43.5494 43.1241 43.8303 43.1808C44.4944 43.3151 44.933 43.4038 45.5331 43.4038C45.9742 43.4038 46.4744 43.3558 47.2617 43.2375L47.6818 43.1747L47.9073 42.8149C48.8523 41.308 49.5448 39.7322 50.0819 37.8557C50.5563 36.2047 50.5526 34.5747 50.5477 32.8497Z" fill="black"/>
</g>
<path d="M39.4356 37.268C38.7346 38.4779 37.5469 39.5387 35.6963 40.6082C34.1364 41.5089 32.5335 41.966 30.9318 41.966C29.2081 41.966 27.7591 41.2107 26.3041 40.3704C24.5372 39.3502 23.4296 38.3424 22.7113 37.1029C21.9893 35.856 21.1601 34.1915 21.1601 32.3643C21.1601 30.8131 21.6505 29.1473 22.577 27.5481C23.3865 26.1509 24.6173 24.9471 26.1365 24.0699C27.6667 23.1852 29.3251 22.717 30.9318 22.717C32.483 22.717 34.0859 23.1889 35.6963 24.1204C37.1267 24.9459 38.721 25.9476 39.5564 27.3916C40.3733 28.7999 40.4423 30.6973 40.4423 32.3643C40.4423 34.5254 40.1219 36.084 39.4356 37.268ZM36.0055 23.5869C34.2991 22.6025 32.5926 22.1022 30.9318 22.1022C29.2167 22.1022 27.4524 22.5988 25.8272 23.5376C24.2157 24.4691 22.9072 25.7492 22.0435 27.24C21.0627 28.9329 20.544 30.7047 20.544 32.3643C20.544 34.3381 21.4176 36.0988 22.179 37.4109C23.1708 39.1248 24.7393 40.1782 25.9948 40.9027C27.4647 41.7516 29.0565 42.5808 30.9318 42.5808C32.6431 42.5808 34.3496 42.0966 36.0043 41.1405C37.9522 40.0156 39.2114 38.882 39.9691 37.576C40.7121 36.2934 41.0571 34.6375 41.0571 32.3643C41.0571 30.6172 40.9832 28.6237 40.0899 27.0836C39.1781 25.509 37.5025 24.4531 36.0055 23.5869Z" fill="black"/>
<path d="M37.2561 34.9813C36.9592 35.6971 36.4417 36.4253 35.7197 37.1473C35.0605 37.8052 34.304 38.3215 33.534 38.6406C32.6961 38.988 31.7955 39.1716 30.9318 39.1716C30.1075 39.1716 29.3375 38.85 28.592 38.5395L28.4023 38.4607C27.5583 38.1108 26.7513 37.7461 26.1464 37.1436C25.5315 36.5288 25.1841 35.6909 24.8477 34.8815C24.5126 34.0744 24.35 33.2502 24.35 32.3643C24.35 31.3577 24.3734 30.5285 24.6851 29.7806C25.0215 28.9687 25.5278 28.2122 26.15 27.59C26.7723 26.969 27.5312 26.4626 28.3432 26.1262C29.0639 25.8281 29.9104 25.6827 30.9318 25.6827C31.8608 25.6827 32.6912 25.9735 33.4514 26.2889C34.219 26.6068 35.0901 26.9678 35.7123 27.5887C36.3813 28.2578 36.7953 29.1325 37.0811 29.8213C37.4126 30.6197 37.7354 31.4735 37.7354 32.3643C37.7354 33.3204 37.5703 34.2248 37.2561 34.9813ZM36.04 27.2635C35.3513 26.576 34.4358 26.1977 33.6276 25.8626C32.8243 25.5299 31.9421 25.2219 30.9318 25.2219C29.8488 25.2219 28.9444 25.3784 28.167 25.6999C27.2984 26.0597 26.4889 26.6006 25.8235 27.2647C25.1594 27.9276 24.6173 28.737 24.2576 29.6044C23.915 30.4299 23.8879 31.3059 23.8879 32.3643C23.8879 33.313 24.0617 34.194 24.4202 35.0577C24.7738 35.909 25.1397 36.79 25.8198 37.4689C26.4839 38.1329 27.3365 38.5186 28.2261 38.8858L28.4146 38.9646C29.2007 39.2936 30.0151 39.6324 30.9318 39.6324C31.8558 39.6324 32.8169 39.4377 33.7101 39.0669C34.5369 38.7256 35.3439 38.1736 36.0462 37.4725C36.8113 36.7087 37.3621 35.93 37.6824 35.1575C38.02 34.3467 38.1974 33.3808 38.1974 32.3643C38.1974 31.3885 37.8574 30.4854 37.5074 29.6439C37.2056 28.9169 36.7657 27.9892 36.04 27.2635Z" fill="black"/>
<path d="M35.01 34.0522C34.7968 34.566 34.3718 35.0293 33.9861 35.4149C33.5426 35.8585 33.0633 36.1936 32.5988 36.3858C32.053 36.6113 31.4616 36.7357 30.9318 36.7357C30.5486 36.7357 30.195 36.5583 29.8204 36.371C29.6713 36.2959 29.5161 36.217 29.3596 36.1529C29.2389 36.1024 29.1157 36.0556 28.9925 36.01C28.5686 35.8498 28.1694 35.6983 27.8811 35.41C27.6088 35.1389 27.4721 34.7582 27.3267 34.3541C27.2762 34.2124 27.2232 34.0658 27.164 33.9229C26.9509 33.4103 26.856 32.9298 26.856 32.3643C26.856 32.2115 26.8499 32.0599 26.8437 31.9096C26.8252 31.4772 26.808 31.0693 26.9534 30.7194C27.169 30.2007 27.4906 29.719 27.8861 29.3235C28.2816 28.9292 28.7645 28.6076 29.2832 28.392C29.7872 28.1838 30.3724 28.1555 30.9318 28.1555C31.4283 28.1555 31.8645 28.3378 32.3253 28.5325L32.4916 28.6015C32.6296 28.6594 32.7713 28.7099 32.9117 28.7616C33.3183 28.9095 33.7027 29.0487 33.9775 29.3222C34.3311 29.6759 34.5307 30.1576 34.7402 30.6665L34.7833 30.7712C34.8264 30.8747 34.8732 30.9794 34.92 31.0854C35.1036 31.4981 35.2934 31.9244 35.2934 32.3643C35.2934 32.8226 35.2441 33.4867 35.01 34.0522ZM35.2108 30.595L35.1677 30.4903C34.9496 29.9617 34.7229 29.4146 34.304 28.997C33.9566 28.6495 33.5056 28.4857 33.0694 28.3279C32.9351 28.2787 32.8009 28.2306 32.6678 28.1752L32.5039 28.1062C32.0209 27.9041 31.5219 27.6934 30.9318 27.6934C30.3256 27.6934 29.6849 27.7267 29.1071 27.9657C28.5317 28.2047 27.9969 28.5608 27.5595 28.9982C27.1222 29.4344 26.7649 29.9691 26.5271 30.542C26.3422 30.988 26.362 31.4661 26.3817 31.9281C26.3878 32.0723 26.394 32.2189 26.394 32.3643C26.394 32.9939 26.5 33.5286 26.7365 34.099C26.792 34.2321 26.8425 34.3738 26.8918 34.5106C27.0482 34.9443 27.2096 35.3915 27.5546 35.7365C27.9132 36.095 28.3777 36.27 28.8286 36.4412C28.9469 36.4856 29.0664 36.5312 29.1834 36.5792C29.3239 36.6372 29.4644 36.7074 29.6134 36.7825C30.0188 36.9871 30.4389 37.1978 30.9318 37.1978C31.5207 37.1978 32.1762 37.0598 32.7762 36.8121C33.2962 36.5965 33.8272 36.2269 34.3126 35.7414C34.7315 35.3237 35.1923 34.8174 35.4363 34.2284C35.7 33.5939 35.7554 32.8645 35.7554 32.3643C35.7554 31.8258 35.5459 31.3552 35.3426 30.8981C35.2971 30.7958 35.2527 30.6948 35.2108 30.595Z" fill="black"/>
<path d="M32.7787 33.43C32.5815 33.7713 32.2316 34.0202 31.9741 34.1693C31.6427 34.3603 31.2718 34.4662 30.9318 34.4662C30.5584 34.4662 30.1728 34.3664 29.8734 34.1939C29.6159 34.0449 29.452 33.759 29.2795 33.4571L29.2118 33.3376C29.0245 33.0161 28.8483 32.7117 28.8483 32.3643C28.8483 32.0415 29.0146 31.7569 29.1896 31.4562L29.2315 31.3848C29.4101 31.0755 29.6393 30.8476 29.951 30.6677L30.0114 30.6332C30.3145 30.457 30.6028 30.2894 30.9318 30.2894C31.2928 30.2894 31.6612 30.388 31.9704 30.5667C32.2797 30.7453 32.5507 31.0151 32.7306 31.3269C32.8711 31.5696 33.0386 31.9454 33.0386 32.3643C33.0386 32.7573 32.9438 33.1454 32.7787 33.43ZM32.2008 30.1675C31.8176 29.9457 31.379 29.8286 30.9318 29.8286C30.4771 29.8286 30.1063 30.0443 29.7785 30.234L29.7194 30.2685C29.335 30.4903 29.0528 30.7724 28.8323 31.1544L28.7904 31.2246C28.6019 31.5486 28.3863 31.9158 28.3863 32.3643C28.3863 32.8362 28.6117 33.2255 28.8113 33.568L28.8791 33.6851C29.0652 34.0116 29.2758 34.3812 29.6418 34.5931C30.0151 34.8087 30.4734 34.927 30.9318 34.927C31.3519 34.927 31.8041 34.8001 32.2045 34.5685C32.5125 34.3911 32.9302 34.0892 33.1791 33.6604C33.3861 33.3031 33.5007 32.8423 33.5007 32.3643C33.5007 31.8431 33.2986 31.3872 33.131 31.0965C32.9105 30.7157 32.5803 30.3855 32.2008 30.1675Z" fill="black"/>
<path d="M3.89729 30.8057C3.37488 30.8057 2.95104 31.2295 2.95104 31.7519C2.95104 32.2743 3.37488 32.6982 3.89729 32.6982C4.41969 32.6982 4.84353 32.2743 4.84353 31.7519C4.84353 31.2295 4.41969 30.8057 3.89729 30.8057Z" fill="black"/>
</g>
</svg>
