<svg width="10" height="11" viewBox="0 0 10 11" fill="none" xmlns="http://www.w3.org/2000/svg">
<path d="M5.00609 2.23125L3.89984 4.47305L1.42484 4.83282L3.21547 6.57891L2.79242 9.04336L5.00609 7.87969L7.21977 9.04219L6.79672 6.57774L8.58734 4.83282L6.11235 4.47305L5.00609 2.23125Z" fill="#FFB800"/>
<path d="M9.64789 4.13438L6.6725 3.70196L5.34242 1.00547C5.30609 0.931645 5.24633 0.871879 5.1725 0.835551C4.98734 0.744145 4.76234 0.820317 4.66977 1.00547L3.33969 3.70196L0.364298 4.13438C0.282267 4.1461 0.207267 4.18477 0.149845 4.24336C0.0804251 4.31471 0.0421716 4.41071 0.04349 4.51025C0.0448084 4.60979 0.0855909 4.70473 0.156876 4.77422L2.30961 6.87305L1.80102 9.83672C1.78909 9.90566 1.79672 9.97657 1.82304 10.0414C1.84936 10.1062 1.89332 10.1624 1.94993 10.2035C2.00654 10.2446 2.07353 10.269 2.14332 10.274C2.21311 10.279 2.2829 10.2643 2.34477 10.2316L5.00609 8.83243L7.66742 10.2316C7.74008 10.2703 7.82446 10.2832 7.90531 10.2691C8.10922 10.234 8.24633 10.0406 8.21117 9.83672L7.70258 6.87305L9.85531 4.77422C9.91391 4.7168 9.95258 4.6418 9.9643 4.55977C9.99594 4.35469 9.85297 4.16485 9.64789 4.13438ZM6.79672 6.57774L7.21977 9.04219L5.00609 7.87969L2.79242 9.04336L3.21547 6.57891L1.42484 4.83282L3.89984 4.47305L5.00609 2.23125L6.11235 4.47305L8.58734 4.83282L6.79672 6.57774Z" fill="#FFB800"/>
<path d="M5.00609 2.23125L3.89984 4.47305L1.42484 4.83282L3.21547 6.57891L2.79242 9.04336L5.00609 7.87969L7.21977 9.04219L6.79672 6.57774L8.58734 4.83282L6.11235 4.47305L5.00609 2.23125Z" stroke="black"/>
<path d="M9.64789 4.13438L6.6725 3.70196L5.34242 1.00547C5.30609 0.931645 5.24633 0.871879 5.1725 0.835551C4.98734 0.744145 4.76234 0.820317 4.66977 1.00547L3.33969 3.70196L0.364298 4.13438C0.282267 4.1461 0.207267 4.18477 0.149845 4.24336C0.0804251 4.31471 0.0421716 4.41071 0.04349 4.51025C0.0448084 4.60979 0.0855909 4.70473 0.156876 4.77422L2.30961 6.87305L1.80102 9.83672C1.78909 9.90566 1.79672 9.97657 1.82304 10.0414C1.84936 10.1062 1.89332 10.1624 1.94993 10.2035C2.00654 10.2446 2.07353 10.269 2.14332 10.274C2.21311 10.279 2.2829 10.2643 2.34477 10.2316L5.00609 8.83243L7.66742 10.2316C7.74008 10.2703 7.82446 10.2832 7.90531 10.2691C8.10922 10.234 8.24633 10.0406 8.21117 9.83672L7.70258 6.87305L9.85531 4.77422C9.91391 4.7168 9.95258 4.6418 9.9643 4.55977C9.99594 4.35469 9.85297 4.16485 9.64789 4.13438ZM6.79672 6.57774L7.21977 9.04219L5.00609 7.87969L2.79242 9.04336L3.21547 6.57891L1.42484 4.83282L3.89984 4.47305L5.00609 2.23125L6.11235 4.47305L8.58734 4.83282L6.79672 6.57774Z" stroke="black"/>
</svg>
