<svg width="58" height="11" viewBox="0 0 58 11" fill="none" xmlns="http://www.w3.org/2000/svg">
<path d="M9.64203 4.13792L6.66664 3.7055L5.33656 1.00901C5.30024 0.935185 5.24047 0.875419 5.16664 0.839091C4.98149 0.747685 4.75649 0.823857 4.66391 1.00901L3.33383 3.7055L0.358439 4.13792C0.276408 4.14964 0.201407 4.18831 0.143986 4.2469C0.0745657 4.31826 0.0363122 4.41425 0.0376306 4.51379C0.0389491 4.61333 0.0797315 4.70828 0.151017 4.77776L2.30375 6.87659L1.79516 9.84026C1.78323 9.9092 1.79086 9.98011 1.81718 10.0449C1.8435 10.1098 1.88746 10.1659 1.94407 10.207C2.00068 10.2481 2.06767 10.2726 2.13746 10.2776C2.20725 10.2825 2.27704 10.2679 2.33891 10.2352L5.00024 8.83597L7.66156 10.2352C7.73422 10.2739 7.8186 10.2867 7.89946 10.2727C8.10336 10.2375 8.24047 10.0442 8.20531 9.84026L7.69672 6.87659L9.84945 4.77776C9.90805 4.72034 9.94672 4.64534 9.95844 4.56331C9.99008 4.35823 9.84711 4.16839 9.64203 4.13792Z" fill="#F4CC66"/>
<path d="M33.6044 4.3375L30.629 3.90508L29.299 1.2086C29.2626 1.13477 29.2029 1.075 29.129 1.03868C28.9439 0.94727 28.7189 1.02344 28.6263 1.2086L27.2962 3.90508L24.3208 4.3375C24.2388 4.34922 24.1638 4.38789 24.1064 4.44649C24.037 4.51784 23.9987 4.61383 24 4.71337C24.0014 4.81291 24.0421 4.90786 24.1134 4.97735L26.2662 7.07618L25.7576 10.0398C25.7456 10.1088 25.7533 10.1797 25.7796 10.2445C25.8059 10.3093 25.8499 10.3655 25.9065 10.4066C25.9631 10.4477 26.0301 10.4722 26.0999 10.4771C26.1697 10.4821 26.2394 10.4674 26.3013 10.4348L28.9626 9.03555L31.624 10.4348C31.6966 10.4734 31.781 10.4863 31.8619 10.4723C32.0658 10.4371 32.2029 10.2438 32.1677 10.0398L31.6591 7.07618L33.8119 4.97735C33.8705 4.91993 33.9091 4.84493 33.9208 4.76289C33.9525 4.55782 33.8095 4.36797 33.6044 4.3375Z" fill="#F4CC66"/>
<path d="M21.6044 4.3375L18.629 3.90508L17.299 1.2086C17.2626 1.13477 17.2029 1.075 17.129 1.03868C16.9439 0.94727 16.7189 1.02344 16.6263 1.2086L15.2962 3.90508L12.3208 4.3375C12.2388 4.34922 12.1638 4.38789 12.1064 4.44649C12.037 4.51784 11.9987 4.61383 12 4.71337C12.0014 4.81291 12.0421 4.90786 12.1134 4.97735L14.2662 7.07618L13.7576 10.0398C13.7456 10.1088 13.7533 10.1797 13.7796 10.2445C13.8059 10.3093 13.8499 10.3655 13.9065 10.4066C13.9631 10.4477 14.0301 10.4722 14.0999 10.4771C14.1697 10.4821 14.2394 10.4674 14.3013 10.4348L16.9626 9.03555L19.624 10.4348C19.6966 10.4734 19.781 10.4863 19.8619 10.4723C20.0658 10.4371 20.2029 10.2438 20.1677 10.0398L19.6591 7.07618L21.8119 4.97735C21.8705 4.91993 21.9091 4.84493 21.9208 4.76289C21.9525 4.55782 21.8095 4.36797 21.6044 4.3375Z" fill="#F4CC66"/>
<path d="M45.5668 4.53709L42.5914 4.10467L41.2614 1.40818C41.225 1.33435 41.1653 1.27459 41.0914 1.23826C40.9063 1.14685 40.6813 1.22303 40.5887 1.40818L39.2586 4.10467L36.2832 4.53709C36.2012 4.54881 36.1262 4.58748 36.0688 4.64607C35.9994 4.71742 35.9611 4.81342 35.9624 4.91296C35.9638 5.0125 36.0045 5.10745 36.0758 5.17693L38.2286 7.27576L37.72 10.2394C37.708 10.3084 37.7157 10.3793 37.742 10.4441C37.7683 10.5089 37.8123 10.5651 37.8689 10.6062C37.9255 10.6473 37.9925 10.6717 38.0623 10.6767C38.1321 10.6817 38.2018 10.667 38.2637 10.6344L40.925 9.23514L43.5864 10.6344C43.659 10.673 43.7434 10.6859 43.8243 10.6719C44.0282 10.6367 44.1653 10.4433 44.1301 10.2394L43.6215 7.27576L45.7743 5.17693C45.8329 5.11951 45.8715 5.04451 45.8832 4.96248C45.9149 4.7574 45.7719 4.56756 45.5668 4.53709Z" fill="#F4CC66"/>
<path d="M57.6044 4.3375L54.629 3.90508L53.299 1.2086C53.2626 1.13477 53.2029 1.075 53.129 1.03868C52.9439 0.94727 52.7189 1.02344 52.6263 1.2086L51.2962 3.90508L48.3208 4.3375C48.2388 4.34922 48.1638 4.38789 48.1064 4.44649C48.037 4.51784 47.9987 4.61383 48 4.71337C48.0014 4.81291 48.0421 4.90786 48.1134 4.97735L50.2662 7.07618L49.7576 10.0398C49.7456 10.1088 49.7533 10.1797 49.7796 10.2445C49.8059 10.3093 49.8499 10.3655 49.9065 10.4066C49.9631 10.4477 50.0301 10.4722 50.0999 10.4771C50.1697 10.4821 50.2394 10.4674 50.3013 10.4348L52.9626 9.03555L55.624 10.4348C55.6966 10.4734 55.781 10.4863 55.8619 10.4723C56.0658 10.4371 56.2029 10.2438 56.1677 10.0398L55.6591 7.07618L57.8119 4.97735C57.8705 4.91993 57.9091 4.84493 57.9208 4.76289C57.9525 4.55782 57.8095 4.36797 57.6044 4.3375Z" fill="#F4CC66"/>
</svg>
