<?xml version="1.0" standalone="no"?>
<!DOCTYPE svg PUBLIC "-//W3C//DTD SVG 20010904//EN"
 "http://www.w3.org/TR/2001/REC-SVG-20010904/DTD/svg10.dtd">
<svg version="1.0" xmlns="http://www.w3.org/2000/svg"
 width="703.000000pt" height="703.000000pt" viewBox="0 0 703.000000 703.000000"
 preserveAspectRatio="xMidYMid meet">
<metadata>
Created by potrace 1.11, written by Peter Selinger 2001-2013
</metadata>
<g transform="translate(0.000000,703.000000) scale(0.100000,-0.100000)"
fill="#000000" stroke="none">
<path d="M3350 5547 c-3 -3 -32 -8 -65 -12 -99 -11 -127 -16 -185 -32 -222
-64 -377 -137 -545 -257 -121 -87 -250 -210 -339 -321 -31 -38 -69 -86 -86
-105 -65 -75 -156 -242 -216 -396 -38 -98 -40 -101 -84 -120 -25 -10 -47 -19
-50 -20 -33 -6 -60 -18 -60 -25 0 -5 -8 -9 -19 -9 -10 0 -24 -7 -31 -15 -7 -8
-19 -15 -26 -15 -8 0 -14 -4 -14 -9 0 -5 -9 -13 -20 -16 -29 -9 -27 -59 3 -72
28 -13 47 -10 103 16 24 12 48 21 53 21 5 0 11 5 13 10 2 6 13 12 26 15 24 4
23 7 6 -72 -3 -18 -10 -33 -14 -33 -5 0 -31 -22 -59 -49 -27 -27 -53 -46 -56
-43 -3 3 -5 0 -5 -6 0 -6 -22 -21 -49 -33 -42 -17 -49 -24 -46 -45 1 -16 -6
-31 -21 -43 -13 -10 -21 -20 -19 -22 2 -3 -9 -13 -26 -24 -16 -11 -29 -23 -29
-27 0 -9 -49 -58 -58 -58 -4 0 -16 -13 -27 -29 -10 -16 -22 -28 -26 -25 -4 2
-9 -6 -12 -18 -4 -12 -9 -19 -13 -15 -7 7 -44 -30 -44 -45 0 -4 -7 -8 -15 -8
-8 0 -15 -4 -15 -9 0 -5 -20 -30 -45 -57 -50 -53 -56 -75 -23 -91 36 -18 58
-23 58 -15 0 5 16 14 36 21 19 7 33 15 30 18 -3 3 5 14 17 23 21 18 23 17 47
-9 25 -28 45 -39 90 -48 45 -10 149 -1 190 15 14 5 28 8 33 5 4 -2 7 1 7 7 0
6 4 9 9 5 5 -3 12 -1 16 5 9 14 22 13 22 -2 2 -65 18 -195 29 -230 3 -9 7 -27
9 -40 16 -83 28 -134 33 -143 4 -5 14 -37 24 -70 32 -114 69 -203 167 -393 35
-70 171 -259 238 -330 21 -23 43 -47 49 -54 17 -20 143 -131 167 -147 12 -8
24 -17 27 -20 16 -18 90 -71 99 -71 6 0 11 -4 11 -8 0 -4 19 -18 43 -30 23
-12 65 -35 92 -50 57 -31 199 -92 227 -97 10 -2 24 -7 31 -12 6 -4 17 -8 22
-9 6 -1 42 -9 80 -19 39 -9 79 -18 90 -21 138 -30 502 -21 597 15 13 5 26 9
31 9 36 4 87 17 110 29 15 7 27 11 27 8 0 -3 13 1 30 10 16 8 31 15 32 14 9
-3 129 54 230 109 196 105 474 373 605 582 22 35 32 53 94 168 18 34 44 70 58
78 22 15 25 15 33 0 5 -9 13 -14 17 -11 5 2 14 -2 21 -10 11 -13 16 -13 41 0
16 9 31 15 34 15 2 0 24 19 49 43 62 60 102 95 88 76 -6 -9 -8 -20 -4 -24 4
-5 2 -6 -3 -2 -15 8 -31 -23 -31 -58 1 -16 3 -29 6 -27 3 2 18 -3 33 -11 22
-11 37 -13 60 -5 18 5 40 12 49 15 25 8 31 34 11 49 -17 13 -17 15 2 30 11 8
19 20 18 25 -2 5 2 9 7 9 6 0 20 11 32 25 11 13 24 23 27 20 4 -2 16 10 26 26
11 16 28 32 38 35 9 3 15 10 12 15 -4 5 -2 9 4 9 5 0 23 19 39 43 23 33 28 47
21 65 -5 13 -13 20 -19 17 -5 -3 -10 -1 -10 6 0 16 -90 5 -101 -12 -7 -12 -14
-11 -41 3 -18 9 -42 18 -54 20 -25 4 -71 -19 -100 -49 -12 -13 -26 -23 -33
-23 -6 0 -16 -9 -23 -20 -7 -11 -17 -20 -23 -20 -6 0 -19 -11 -29 -25 -10 -14
-24 -25 -30 -25 -6 0 -24 -14 -40 -30 -16 -17 -31 -29 -34 -26 -2 3 -13 -6
-24 -19 -11 -14 -23 -25 -28 -25 -10 0 25 104 44 135 11 16 26 93 30 150 1 6
10 10 21 11 43 1 94 15 105 29 7 8 17 12 23 8 5 -3 7 -1 3 5 -3 6 3 13 14 17
11 4 18 10 15 15 -3 5 -1 11 4 15 9 5 7 42 -2 51 -14 14 -127 1 -127 -15 0 -4
-6 -8 -14 -8 -10 0 -13 9 -10 31 2 17 8 56 12 87 10 64 8 418 -2 499 -9 74
-14 99 -31 172 -8 35 -17 77 -20 95 -3 18 -10 45 -16 60 -6 15 -13 38 -15 50
-20 107 -194 465 -260 538 -19 21 -47 55 -107 130 -57 71 -236 245 -293 285
-12 8 -49 34 -83 58 -116 81 -313 174 -451 212 -98 27 -107 29 -160 36 -25 3
-54 8 -65 11 -30 7 -319 16 -325 10z m-1584 -1744 c-2 -43 -5 -110 -5 -149
l-1 -72 -42 -17 c-63 -25 -76 -28 -148 -29 -59 -1 -65 1 -68 20 -4 31 22 85
68 137 81 92 181 187 198 187 2 0 1 -35 -2 -77z"/>
</g>
</svg>
