<?xml version="1.0" standalone="no"?>
<!DOCTYPE svg PUBLIC "-//W3C//DTD SVG 20010904//EN"
 "http://www.w3.org/TR/2001/REC-SVG-20010904/DTD/svg10.dtd">
<svg version="1.0" xmlns="http://www.w3.org/2000/svg"
 width="3457.000000pt" height="3457.000000pt" viewBox="0 0 3457.000000 3457.000000"
 preserveAspectRatio="xMidYMid meet">
<metadata>
Created by potrace 1.14, written by Peter Selinger 2001-2017
</metadata>
<g transform="translate(0.000000,3457.000000) scale(0.100000,-0.100000)"
fill="#000000" stroke="none">
<path d="M9275 24958 c-4 -12 -4036 -15270 -4050 -15330 l-7 -28 1623 0 1624
0 2043 7663 c1124 4214 2045 7672 2049 7685 l5 22 -1641 0 c-1304 0 -1643 -3
-1646 -12z"/>
<path d="M14715 24958 c-6 -19 -4055 -15347 -4055 -15353 0 -3 730 -4 1622 -3
l1622 3 2043 7660 c1123 4213 2045 7670 2048 7683 l5 22 -1640 0 c-1304 0
-1642 -3 -1645 -12z"/>
<path d="M20046 24833 c-20 -76 -934 -3533 -2030 -7683 l-1993 -7545 1620 -3
c891 -1 1622 0 1624 2 2 2 925 3460 2051 7685 l2048 7681 -1641 0 -1642 0 -37
-137z"/>
<path d="M25025 21279 c-25 -68 -3403 -11655 -3399 -11661 6 -10 7721 -11
7727 0 4 7 -4306 11658 -4317 11669 -3 3 -8 0 -11 -8z"/>
</g>
</svg>
