<svg width="1717" height="1306" viewBox="0 0 1717 1306" fill="none" xmlns="http://www.w3.org/2000/svg">
<path d="M145.35 863.104C127.11 863.104 110.238 859.798 94.734 853.186C79.23 846.574 65.664 837.34 54.036 825.484C42.408 813.628 33.288 799.72 26.676 783.76C20.292 767.8 17.1 750.358 17.1 731.434C17.1 712.51 20.178 695.068 26.334 679.108C32.718 662.92 41.61 649.012 53.01 637.384C64.638 625.528 78.204 616.408 93.708 610.024C109.212 603.412 126.084 600.106 144.324 600.106C162.564 600.106 178.866 603.184 193.23 609.34C207.822 615.496 220.134 623.704 230.166 633.964C240.198 643.996 247.38 655.054 251.712 667.138L210.33 686.974C205.542 673.75 197.448 663.034 186.048 654.826C174.648 646.618 160.74 642.514 144.324 642.514C128.364 642.514 114.228 646.276 101.916 653.8C89.832 661.324 80.37 671.698 73.53 684.922C66.918 698.146 63.612 713.65 63.612 731.434C63.612 749.218 67.032 764.836 73.872 778.288C80.94 791.512 90.63 801.886 102.942 809.41C115.254 816.934 129.39 820.696 145.35 820.696C158.346 820.696 170.316 818.188 181.26 813.172C192.204 807.928 200.982 800.632 207.594 791.284C214.206 781.708 217.512 770.422 217.512 757.426V737.932L238.716 756.4H144.324V717.07H264.024V742.72C264.024 762.328 260.718 779.656 254.106 794.704C247.494 809.752 238.488 822.406 227.088 832.666C215.916 842.698 203.262 850.336 189.126 855.58C174.99 860.596 160.398 863.104 145.35 863.104ZM342.895 863.104C328.531 863.104 315.991 859.912 305.275 853.528C294.787 847.144 286.693 838.252 280.993 826.852C275.521 815.452 272.785 802.114 272.785 786.838V672.952H317.587V783.076C317.587 790.828 319.069 797.668 322.033 803.596C325.225 809.296 329.671 813.856 335.371 817.276C341.299 820.468 347.911 822.064 355.207 822.064C362.503 822.064 369.001 820.468 374.701 817.276C380.401 813.856 384.847 809.182 388.039 803.254C391.231 797.326 392.827 790.258 392.827 782.05V672.952H437.629V859H395.221V822.406L398.983 828.904C394.651 840.304 387.469 848.854 377.437 854.554C367.633 860.254 356.119 863.104 342.895 863.104ZM458.756 859V672.952H503.558V859H458.756ZM458.756 652.09V604.21H503.558V652.09H458.756ZM524.404 859V600.106H569.206V859H524.404ZM590.052 859V600.106H634.854V859H590.052ZM746.672 863.104C728.432 863.104 711.788 858.886 696.74 850.45C681.92 842.014 670.064 830.5 661.172 815.908C652.508 801.316 648.176 784.672 648.176 765.976C648.176 747.28 652.508 730.636 661.172 716.044C670.064 701.452 681.92 689.938 696.74 681.502C711.56 673.066 728.204 668.848 746.672 668.848C764.912 668.848 781.442 673.066 796.262 681.502C811.082 689.938 822.824 701.452 831.488 716.044C840.38 730.408 844.826 747.052 844.826 765.976C844.826 784.672 840.38 801.316 831.488 815.908C822.596 830.5 810.74 842.014 795.92 850.45C781.1 858.886 764.684 863.104 746.672 863.104ZM746.672 822.064C756.704 822.064 765.482 819.67 773.006 814.882C780.758 810.094 786.8 803.482 791.132 795.046C795.692 786.382 797.972 776.692 797.972 765.976C797.972 755.032 795.692 745.456 791.132 737.248C786.8 728.812 780.758 722.2 773.006 717.412C765.482 712.396 756.704 709.888 746.672 709.888C736.412 709.888 727.406 712.396 719.654 717.412C711.902 722.2 705.746 728.812 701.186 737.248C696.854 745.456 694.688 755.032 694.688 765.976C694.688 776.692 696.854 786.382 701.186 795.046C705.746 803.482 711.902 810.094 719.654 814.882C727.406 819.67 736.412 822.064 746.672 822.064ZM924.629 863.104C910.265 863.104 897.725 859.912 887.009 853.528C876.521 847.144 868.427 838.252 862.727 826.852C857.255 815.452 854.519 802.114 854.519 786.838V672.952H899.321V783.076C899.321 790.828 900.803 797.668 903.767 803.596C906.959 809.296 911.405 813.856 917.105 817.276C923.033 820.468 929.645 822.064 936.941 822.064C944.237 822.064 950.735 820.468 956.435 817.276C962.135 813.856 966.581 809.182 969.773 803.254C972.965 797.326 974.561 790.258 974.561 782.05V672.952H1019.36V859H976.955V822.406L980.717 828.904C976.385 840.304 969.203 848.854 959.171 854.554C949.367 860.254 937.853 863.104 924.629 863.104ZM144.324 1254.1C126.084 1254.1 109.212 1250.8 93.708 1244.19C78.432 1237.57 64.98 1228.34 53.352 1216.48C41.952 1204.63 33.06 1190.72 26.676 1174.76C20.292 1158.8 17.1 1141.36 17.1 1122.43C17.1 1103.51 20.178 1086.07 26.334 1070.11C32.718 1053.92 41.61 1040.01 53.01 1028.38C64.638 1016.53 78.204 1007.41 93.708 1001.02C109.212 994.412 126.084 991.106 144.324 991.106C162.564 991.106 178.866 994.184 193.23 1000.34C207.822 1006.5 220.134 1014.7 230.166 1024.96C240.198 1035 247.38 1046.05 251.712 1058.14L209.988 1077.63C205.2 1064.86 197.106 1054.38 185.706 1046.17C174.306 1037.73 160.512 1033.51 144.324 1033.51C128.364 1033.51 114.228 1037.28 101.916 1044.8C89.832 1052.32 80.37 1062.7 73.53 1075.92C66.918 1089.15 63.612 1104.65 63.612 1122.43C63.612 1140.22 66.918 1155.84 73.53 1169.29C80.37 1182.51 89.832 1192.89 101.916 1200.41C114.228 1207.93 128.364 1211.7 144.324 1211.7C160.512 1211.7 174.306 1207.59 185.706 1199.38C197.106 1190.95 205.2 1180.35 209.988 1167.58L251.712 1187.07C247.38 1199.16 240.198 1210.33 230.166 1220.59C220.134 1230.62 207.822 1238.71 193.23 1244.87C178.866 1251.03 162.564 1254.1 144.324 1254.1ZM352.824 1254.1C334.584 1254.1 317.94 1249.89 302.892 1241.45C288.072 1233.01 276.216 1221.5 267.324 1206.91C258.66 1192.32 254.328 1175.67 254.328 1156.98C254.328 1138.28 258.66 1121.64 267.324 1107.04C276.216 1092.45 288.072 1080.94 302.892 1072.5C317.712 1064.07 334.356 1059.85 352.824 1059.85C371.064 1059.85 387.594 1064.07 402.414 1072.5C417.234 1080.94 428.976 1092.45 437.64 1107.04C446.532 1121.41 450.978 1138.05 450.978 1156.98C450.978 1175.67 446.532 1192.32 437.64 1206.91C428.748 1221.5 416.892 1233.01 402.072 1241.45C387.252 1249.89 370.836 1254.1 352.824 1254.1ZM352.824 1213.06C362.856 1213.06 371.634 1210.67 379.158 1205.88C386.91 1201.09 392.952 1194.48 397.284 1186.05C401.844 1177.38 404.124 1167.69 404.124 1156.98C404.124 1146.03 401.844 1136.46 397.284 1128.25C392.952 1119.81 386.91 1113.2 379.158 1108.41C371.634 1103.4 362.856 1100.89 352.824 1100.89C342.564 1100.89 333.558 1103.4 325.806 1108.41C318.054 1113.2 311.898 1119.81 307.338 1128.25C303.006 1136.46 300.84 1146.03 300.84 1156.98C300.84 1167.69 303.006 1177.38 307.338 1186.05C311.898 1194.48 318.054 1201.09 325.806 1205.88C333.558 1210.67 342.564 1213.06 352.824 1213.06ZM530.781 1254.1C516.417 1254.1 503.877 1250.91 493.161 1244.53C482.673 1238.14 474.579 1229.25 468.879 1217.85C463.407 1206.45 460.671 1193.11 460.671 1177.84V1063.95H505.473V1174.08C505.473 1181.83 506.955 1188.67 509.919 1194.6C513.111 1200.3 517.557 1204.86 523.257 1208.28C529.185 1211.47 535.797 1213.06 543.093 1213.06C550.389 1213.06 556.887 1211.47 562.587 1208.28C568.287 1204.86 572.733 1200.18 575.925 1194.25C579.117 1188.33 580.713 1181.26 580.713 1173.05V1063.95H625.515V1250H583.107V1213.41L586.869 1219.9C582.537 1231.3 575.355 1239.85 565.323 1245.55C555.519 1251.25 544.005 1254.1 530.781 1254.1ZM702.73 1250L629.542 1063.95H678.448L731.458 1210.33H713.332L766.684 1063.95H815.59L742.402 1250H702.73ZM904.729 1254.1C885.577 1254.1 868.819 1249.77 854.455 1241.11C840.091 1232.44 828.919 1220.7 820.939 1205.88C812.959 1191.06 808.969 1174.65 808.969 1156.63C808.969 1137.94 812.959 1121.41 820.939 1107.04C829.147 1092.45 840.205 1080.94 854.113 1072.5C868.249 1064.07 883.981 1059.85 901.309 1059.85C915.901 1059.85 928.669 1062.24 939.613 1067.03C950.785 1071.82 960.247 1078.43 967.999 1086.87C975.751 1095.3 981.679 1104.99 985.783 1115.94C989.887 1126.65 991.939 1138.28 991.939 1150.82C991.939 1154.01 991.711 1157.32 991.255 1160.74C991.027 1164.16 990.457 1167.12 989.545 1169.63H845.905V1135.43H964.237L943.033 1151.5C945.085 1141.02 944.515 1131.67 941.323 1123.46C938.359 1115.25 933.343 1108.75 926.275 1103.97C919.435 1099.18 911.113 1096.78 901.309 1096.78C891.961 1096.78 883.639 1099.18 876.343 1103.97C869.047 1108.53 863.461 1115.37 859.585 1124.49C855.937 1133.38 854.569 1144.21 855.481 1156.98C854.569 1168.38 856.051 1178.52 859.927 1187.41C864.031 1196.08 869.959 1202.8 877.711 1207.59C885.691 1212.38 894.811 1214.77 905.071 1214.77C915.331 1214.77 923.995 1212.61 931.063 1208.28C938.359 1203.94 944.059 1198.13 948.163 1190.83L984.415 1208.62C980.767 1217.51 975.067 1225.38 967.315 1232.22C959.563 1239.06 950.329 1244.41 939.613 1248.29C929.125 1252.17 917.497 1254.1 904.729 1254.1ZM1005.38 1250V1063.95H1047.45V1105.33L1044.03 1099.18C1048.36 1085.27 1055.09 1075.58 1064.21 1070.11C1073.55 1064.64 1084.73 1061.9 1097.72 1061.9H1108.67V1101.57H1092.59C1079.82 1101.57 1069.56 1105.56 1061.81 1113.54C1054.06 1121.29 1050.18 1132.24 1050.18 1146.37V1250H1005.38ZM1202.6 1252.05C1181.63 1252.05 1165.32 1246.35 1153.7 1234.95C1142.3 1223.32 1136.6 1207.02 1136.6 1186.05V1103.97H1104.45V1063.95H1107.87C1116.99 1063.95 1124.06 1061.56 1129.07 1056.77C1134.09 1051.98 1136.6 1045.03 1136.6 1035.91V1021.54H1181.4V1063.95H1224.15V1103.97H1181.4V1183.65C1181.4 1189.81 1182.42 1195.05 1184.48 1199.38C1186.76 1203.72 1190.18 1207.02 1194.74 1209.3C1199.52 1211.58 1205.57 1212.72 1212.86 1212.72C1214.46 1212.72 1216.28 1212.61 1218.33 1212.38C1220.61 1212.15 1222.78 1211.92 1224.83 1211.7V1250C1221.64 1250.46 1217.99 1250.91 1213.89 1251.37C1209.78 1251.82 1206.02 1252.05 1202.6 1252.05ZM1304.89 1254.1C1290.53 1254.1 1277.99 1250.91 1267.27 1244.53C1256.78 1238.14 1248.69 1229.25 1242.99 1217.85C1237.52 1206.45 1234.78 1193.11 1234.78 1177.84V1063.95H1279.58V1174.08C1279.58 1181.83 1281.06 1188.67 1284.03 1194.6C1287.22 1200.3 1291.67 1204.86 1297.37 1208.28C1303.29 1211.47 1309.91 1213.06 1317.2 1213.06C1324.5 1213.06 1331 1211.47 1336.7 1208.28C1342.4 1204.86 1346.84 1200.18 1350.03 1194.25C1353.23 1188.33 1354.82 1181.26 1354.82 1173.05V1063.95H1399.62V1250H1357.22V1213.41L1360.98 1219.9C1356.65 1231.3 1349.46 1239.85 1339.43 1245.55C1329.63 1251.25 1318.11 1254.1 1304.89 1254.1ZM1420.75 1250V1063.95H1462.82V1105.33L1459.4 1099.18C1463.73 1085.27 1470.45 1075.58 1479.57 1070.11C1488.92 1064.64 1500.09 1061.9 1513.09 1061.9H1524.03V1101.57H1507.96C1495.19 1101.57 1484.93 1105.56 1477.18 1113.54C1469.43 1121.29 1465.55 1132.24 1465.55 1146.37V1250H1420.75ZM1616.38 1254.1C1597.23 1254.1 1580.47 1249.77 1566.11 1241.11C1551.74 1232.44 1540.57 1220.7 1532.59 1205.88C1524.61 1191.06 1520.62 1174.65 1520.62 1156.63C1520.62 1137.94 1524.61 1121.41 1532.59 1107.04C1540.8 1092.45 1551.86 1080.94 1565.77 1072.5C1579.9 1064.07 1595.63 1059.85 1612.96 1059.85C1627.55 1059.85 1640.32 1062.24 1651.27 1067.03C1662.44 1071.82 1671.9 1078.43 1679.65 1086.87C1687.4 1095.3 1693.33 1104.99 1697.44 1115.94C1701.54 1126.65 1703.59 1138.28 1703.59 1150.82C1703.59 1154.01 1703.36 1157.32 1702.91 1160.74C1702.68 1164.16 1702.11 1167.12 1701.2 1169.63H1557.56V1135.43H1675.89L1654.69 1151.5C1656.74 1141.02 1656.17 1131.67 1652.98 1123.46C1650.01 1115.25 1645 1108.75 1637.93 1103.97C1631.09 1099.18 1622.77 1096.78 1612.96 1096.78C1603.61 1096.78 1595.29 1099.18 1588 1103.97C1580.7 1108.53 1575.11 1115.37 1571.24 1124.49C1567.59 1133.38 1566.22 1144.21 1567.13 1156.98C1566.22 1168.38 1567.7 1178.52 1571.58 1187.41C1575.68 1196.08 1581.61 1202.8 1589.36 1207.59C1597.34 1212.38 1606.46 1214.77 1616.72 1214.77C1626.98 1214.77 1635.65 1212.61 1642.72 1208.28C1650.01 1203.94 1655.71 1198.13 1659.82 1190.83L1696.07 1208.62C1692.42 1217.51 1686.72 1225.38 1678.97 1232.22C1671.22 1239.06 1661.98 1244.41 1651.27 1248.29C1640.78 1252.17 1629.15 1254.1 1616.38 1254.1Z" fill="white"/>
<path d="M109 0L0 412.5H87L197 0H109Z" fill="white"/>
<path d="M255 0L146 412.5H233L343 0H255Z" fill="white"/>
<path d="M399 0L290 412.5H377L487 0H399Z" fill="white"/>
<path d="M531 100L436 412H647L531 100Z" fill="white"/>
</svg>
